<svg width="255" height="273" viewBox="0 0 255 273" fill="none" xmlns="http://www.w3.org/2000/svg">
  <mask id="path-1-outside-1" maskUnits="userSpaceOnUse" x="0.410645" y="0.583984" width="255" height="273"
    fill="black">
    <rect fill="white" x="0.410645" y="0.583984" width="255" height="273" />
    <path fill-rule="evenodd" clip-rule="evenodd"
      d="M41.8346 15.8C45.4826 11.384 50.1866 9.17599 55.9466 9.17599H59.9786C63.0506 9.17599 65.4506 9.84799 67.1786 11.192C69.0986 12.344 70.0586 13.976 70.0586 16.088C70.0586 18.2 69.0026 20.6 66.8906 23.288L52.2027 41.72C48.9386 46.136 47.3066 50.936 47.3066 56.12V116.6C47.3066 122.168 45.3866 126.872 41.5466 130.712C39.4346 132.824 38.3786 134.936 38.3786 137.048C38.3786 138.776 39.3386 140.792 41.2587 143.096L41.5466 143.384C45.3866 147.224 47.3066 152.024 47.3066 157.784V217.4C47.3066 222.584 48.9386 227.384 52.2027 231.8L66.6026 249.944C68.9066 252.824 70.0586 255.608 70.0586 258.296C70.0586 260.024 69.3866 261.368 68.0426 262.328C66.8906 263.48 65.0667 264.056 62.5706 264.056H55.9466C50.1866 264.056 45.4826 261.848 41.8346 257.432L24.2666 236.12C20.8106 231.704 19.0826 226.904 19.0826 221.72V160.952C19.0826 155.576 16.9706 150.872 12.7466 146.84L10.7306 145.112C7.85064 142.424 6.41064 139.64 6.41064 136.76C6.41064 133.88 7.75464 131.288 10.4426 128.984L12.7466 126.968C16.9706 122.936 19.0826 118.232 19.0826 112.856V51.8C19.0826 46.424 20.8106 41.624 24.2666 37.4L41.8346 15.8ZM12.0717 126.23C16.1065 122.372 18.0826 117.927 18.0826 112.856V51.8C18.0826 46.1893 19.8929 41.1665 23.4927 36.7667L41.0637 15.1631C44.9029 10.5156 49.8903 8.17599 55.9466 8.17599H59.9786C63.1592 8.17599 65.7875 8.86521 67.7447 10.3656C69.9105 11.6845 71.0586 13.6193 71.0586 16.088C71.0586 18.5254 69.848 21.1426 67.677 23.9058L67.6727 23.9112L52.9961 42.3289C49.8584 46.5796 48.3066 51.1687 48.3066 56.12V116.6C48.3066 122.426 46.2865 127.386 42.2538 131.419C40.2507 133.422 39.3786 135.295 39.3786 137.048C39.3786 138.416 40.1489 140.193 41.9982 142.421L42.2538 142.677C46.2935 146.717 48.3066 151.777 48.3066 157.784V217.4C48.3066 222.352 49.8587 226.941 52.9969 231.192L67.3835 249.319C69.7771 252.311 71.0586 255.309 71.0586 258.296C71.0586 260.301 70.2669 261.938 68.6902 263.094C67.2716 264.47 65.1572 265.056 62.5706 265.056H55.9466C49.8903 265.056 44.9029 262.716 41.0637 258.069L41.063 258.068L23.4869 236.746L23.4791 236.736C19.8974 232.16 18.0826 227.146 18.0826 221.72V160.952C18.0826 155.882 16.1077 151.439 12.0754 147.582L10.0638 145.857L10.0483 145.843C7.04283 143.038 5.41064 140.008 5.41064 136.76C5.41064 133.524 6.93623 130.674 9.78811 128.228C9.78935 128.227 9.7906 128.226 9.79185 128.225L12.0717 126.23ZM72.371 36.6929C74.5447 34.5192 77.724 33.52 81.7181 33.52H172.726C176.72 33.52 179.9 34.5192 182.073 36.6929C184.247 38.8666 185.246 42.0459 185.246 46.04V49.208C185.246 53.2021 184.247 56.3814 182.073 58.5551C179.9 60.7288 176.72 61.728 172.726 61.728H151.99C148.304 61.728 145.724 62.6488 144.057 64.3151C142.391 65.9814 141.47 68.5621 141.47 72.248V229.784C141.47 233.778 140.471 236.957 138.297 239.131C136.124 241.305 132.944 242.304 128.95 242.304H125.782C121.788 242.304 118.609 241.305 116.435 239.131C114.261 236.957 113.262 233.778 113.262 229.784V72.248C113.262 68.5621 112.341 65.9814 110.675 64.3151C109.009 62.6488 106.428 61.728 102.742 61.728H81.7181C77.724 61.728 74.5447 60.7288 72.371 58.5551C70.1974 56.3814 69.1981 53.2021 69.1981 49.208V46.04C69.1981 42.0459 70.1974 38.8666 72.371 36.6929ZM245.37 145.007L245.36 145.016L243.658 146.434C239.629 150.29 237.655 154.732 237.655 159.8V224.312C237.655 227.277 237.26 229.894 236.443 232.142C235.625 234.392 234.21 236.699 232.24 239.064L232.233 239.072L213.237 260.945C213.234 260.949 213.231 260.953 213.228 260.956C209.564 265.428 204.567 267.648 198.351 267.648H194.607C191.398 267.648 188.687 266.947 186.555 265.458C184.549 264.117 183.527 262.172 183.527 259.736C183.527 257.299 184.738 254.681 186.909 251.918L186.912 251.914L201.301 233.784C204.439 229.533 205.991 224.944 205.991 219.992V156.92C205.991 150.864 208.331 145.876 212.979 142.037L212.982 142.034C214.935 140.436 215.783 138.777 215.783 137.048C215.783 135.542 214.967 133.978 212.994 132.359C210.418 130.376 208.567 128.243 207.521 125.942L207.514 125.927L207.508 125.913C206.487 123.462 205.991 120.638 205.991 117.464V54.392C205.991 49.035 204.427 44.4616 201.318 40.6212L201.309 40.6096L201.3 40.5977L186.621 21.3138C186.619 21.3116 186.618 21.3094 186.616 21.3072C184.407 18.4937 183.239 15.5966 183.239 12.632C183.239 10.604 184.045 8.8894 185.605 7.55273L185.629 7.53152L185.655 7.51199C187.397 6.20578 189.54 5.58398 192.015 5.58398H198.351C204.404 5.58398 209.388 7.92043 213.226 12.5615C213.229 12.5647 213.232 12.5679 213.234 12.5711L232.233 34.448L232.24 34.4558C234.21 36.8207 235.625 39.128 236.443 41.3782C237.26 43.6257 237.655 46.2427 237.655 49.208V113.72C237.655 119.006 239.553 123.442 243.374 127.09L245.37 128.801C248.184 131.212 249.751 133.866 249.751 136.76C249.751 139.826 248.205 142.577 245.37 145.007ZM242.703 127.832C238.671 123.992 236.655 119.288 236.655 113.72V49.208C236.655 46.328 236.271 43.832 235.503 41.72C234.735 39.608 233.391 37.4 231.471 35.096L212.463 13.208C208.815 8.79199 204.111 6.58398 198.351 6.58398H192.015C189.711 6.58398 187.791 7.15999 186.255 8.31198C184.911 9.46399 184.239 10.904 184.239 12.632C184.239 15.32 185.295 18.008 187.407 20.696L202.095 39.992C205.359 44.024 206.991 48.824 206.991 54.392V117.464C206.991 120.536 207.471 123.224 208.431 125.528C209.391 127.64 211.119 129.656 213.615 131.576C215.727 133.304 216.783 135.128 216.783 137.048C216.783 139.16 215.727 141.08 213.615 142.808C209.199 146.456 206.991 151.16 206.991 156.92V219.992C206.991 225.176 205.359 229.976 202.095 234.392L187.695 252.536C185.583 255.224 184.527 257.624 184.527 259.736C184.527 261.848 185.391 263.48 187.119 264.632C189.039 265.976 191.535 266.648 194.607 266.648H198.351C204.303 266.648 209.007 264.536 212.463 260.312L231.471 238.424C233.391 236.12 234.735 233.912 235.503 231.8C236.271 229.688 236.655 227.192 236.655 224.312V159.8C236.655 154.424 238.767 149.72 242.991 145.688L244.719 144.248C247.407 141.944 248.751 139.448 248.751 136.76C248.751 134.264 247.407 131.864 244.719 129.56L242.703 127.832ZM81.7181 34.52C74.0381 34.52 70.1981 38.36 70.1981 46.04V49.208C70.1981 56.888 74.0381 60.728 81.7181 60.728H102.742C110.422 60.728 114.262 64.568 114.262 72.248V229.784C114.262 237.464 118.102 241.304 125.782 241.304H128.95C136.63 241.304 140.47 237.464 140.47 229.784V72.248C140.47 64.568 144.31 60.728 151.99 60.728H172.726C180.406 60.728 184.246 56.888 184.246 49.208V46.04C184.246 38.36 180.406 34.52 172.726 34.52H81.7181Z" />
  </mask>
  <path fill-rule="evenodd" clip-rule="evenodd"
    d="M41.8346 15.8C45.4826 11.384 50.1866 9.17599 55.9466 9.17599H59.9786C63.0506 9.17599 65.4506 9.84799 67.1786 11.192C69.0986 12.344 70.0586 13.976 70.0586 16.088C70.0586 18.2 69.0026 20.6 66.8906 23.288L52.2027 41.72C48.9386 46.136 47.3066 50.936 47.3066 56.12V116.6C47.3066 122.168 45.3866 126.872 41.5466 130.712C39.4346 132.824 38.3786 134.936 38.3786 137.048C38.3786 138.776 39.3386 140.792 41.2587 143.096L41.5466 143.384C45.3866 147.224 47.3066 152.024 47.3066 157.784V217.4C47.3066 222.584 48.9386 227.384 52.2027 231.8L66.6026 249.944C68.9066 252.824 70.0586 255.608 70.0586 258.296C70.0586 260.024 69.3866 261.368 68.0426 262.328C66.8906 263.48 65.0667 264.056 62.5706 264.056H55.9466C50.1866 264.056 45.4826 261.848 41.8346 257.432L24.2666 236.12C20.8106 231.704 19.0826 226.904 19.0826 221.72V160.952C19.0826 155.576 16.9706 150.872 12.7466 146.84L10.7306 145.112C7.85064 142.424 6.41064 139.64 6.41064 136.76C6.41064 133.88 7.75464 131.288 10.4426 128.984L12.7466 126.968C16.9706 122.936 19.0826 118.232 19.0826 112.856V51.8C19.0826 46.424 20.8106 41.624 24.2666 37.4L41.8346 15.8ZM12.0717 126.23C16.1065 122.372 18.0826 117.927 18.0826 112.856V51.8C18.0826 46.1893 19.8929 41.1665 23.4927 36.7667L41.0637 15.1631C44.9029 10.5156 49.8903 8.17599 55.9466 8.17599H59.9786C63.1592 8.17599 65.7875 8.86521 67.7447 10.3656C69.9105 11.6845 71.0586 13.6193 71.0586 16.088C71.0586 18.5254 69.848 21.1426 67.677 23.9058L67.6727 23.9112L52.9961 42.3289C49.8584 46.5796 48.3066 51.1687 48.3066 56.12V116.6C48.3066 122.426 46.2865 127.386 42.2538 131.419C40.2507 133.422 39.3786 135.295 39.3786 137.048C39.3786 138.416 40.1489 140.193 41.9982 142.421L42.2538 142.677C46.2935 146.717 48.3066 151.777 48.3066 157.784V217.4C48.3066 222.352 49.8587 226.941 52.9969 231.192L67.3835 249.319C69.7771 252.311 71.0586 255.309 71.0586 258.296C71.0586 260.301 70.2669 261.938 68.6902 263.094C67.2716 264.47 65.1572 265.056 62.5706 265.056H55.9466C49.8903 265.056 44.9029 262.716 41.0637 258.069L41.063 258.068L23.4869 236.746L23.4791 236.736C19.8974 232.16 18.0826 227.146 18.0826 221.72V160.952C18.0826 155.882 16.1077 151.439 12.0754 147.582L10.0638 145.857L10.0483 145.843C7.04283 143.038 5.41064 140.008 5.41064 136.76C5.41064 133.524 6.93623 130.674 9.78811 128.228C9.78935 128.227 9.7906 128.226 9.79185 128.225L12.0717 126.23ZM72.371 36.6929C74.5447 34.5192 77.724 33.52 81.7181 33.52H172.726C176.72 33.52 179.9 34.5192 182.073 36.6929C184.247 38.8666 185.246 42.0459 185.246 46.04V49.208C185.246 53.2021 184.247 56.3814 182.073 58.5551C179.9 60.7288 176.72 61.728 172.726 61.728H151.99C148.304 61.728 145.724 62.6488 144.057 64.3151C142.391 65.9814 141.47 68.5621 141.47 72.248V229.784C141.47 233.778 140.471 236.957 138.297 239.131C136.124 241.305 132.944 242.304 128.95 242.304H125.782C121.788 242.304 118.609 241.305 116.435 239.131C114.261 236.957 113.262 233.778 113.262 229.784V72.248C113.262 68.5621 112.341 65.9814 110.675 64.3151C109.009 62.6488 106.428 61.728 102.742 61.728H81.7181C77.724 61.728 74.5447 60.7288 72.371 58.5551C70.1974 56.3814 69.1981 53.2021 69.1981 49.208V46.04C69.1981 42.0459 70.1974 38.8666 72.371 36.6929ZM245.37 145.007L245.36 145.016L243.658 146.434C239.629 150.29 237.655 154.732 237.655 159.8V224.312C237.655 227.277 237.26 229.894 236.443 232.142C235.625 234.392 234.21 236.699 232.24 239.064L232.233 239.072L213.237 260.945C213.234 260.949 213.231 260.953 213.228 260.956C209.564 265.428 204.567 267.648 198.351 267.648H194.607C191.398 267.648 188.687 266.947 186.555 265.458C184.549 264.117 183.527 262.172 183.527 259.736C183.527 257.299 184.738 254.681 186.909 251.918L186.912 251.914L201.301 233.784C204.439 229.533 205.991 224.944 205.991 219.992V156.92C205.991 150.864 208.331 145.876 212.979 142.037L212.982 142.034C214.935 140.436 215.783 138.777 215.783 137.048C215.783 135.542 214.967 133.978 212.994 132.359C210.418 130.376 208.567 128.243 207.521 125.942L207.514 125.927L207.508 125.913C206.487 123.462 205.991 120.638 205.991 117.464V54.392C205.991 49.035 204.427 44.4616 201.318 40.6212L201.309 40.6096L201.3 40.5977L186.621 21.3138C186.619 21.3116 186.618 21.3094 186.616 21.3072C184.407 18.4937 183.239 15.5966 183.239 12.632C183.239 10.604 184.045 8.8894 185.605 7.55273L185.629 7.53152L185.655 7.51199C187.397 6.20578 189.54 5.58398 192.015 5.58398H198.351C204.404 5.58398 209.388 7.92043 213.226 12.5615C213.229 12.5647 213.232 12.5679 213.234 12.5711L232.233 34.448L232.24 34.4558C234.21 36.8207 235.625 39.128 236.443 41.3782C237.26 43.6257 237.655 46.2427 237.655 49.208V113.72C237.655 119.006 239.553 123.442 243.374 127.09L245.37 128.801C248.184 131.212 249.751 133.866 249.751 136.76C249.751 139.826 248.205 142.577 245.37 145.007ZM242.703 127.832C238.671 123.992 236.655 119.288 236.655 113.72V49.208C236.655 46.328 236.271 43.832 235.503 41.72C234.735 39.608 233.391 37.4 231.471 35.096L212.463 13.208C208.815 8.79199 204.111 6.58398 198.351 6.58398H192.015C189.711 6.58398 187.791 7.15999 186.255 8.31198C184.911 9.46399 184.239 10.904 184.239 12.632C184.239 15.32 185.295 18.008 187.407 20.696L202.095 39.992C205.359 44.024 206.991 48.824 206.991 54.392V117.464C206.991 120.536 207.471 123.224 208.431 125.528C209.391 127.64 211.119 129.656 213.615 131.576C215.727 133.304 216.783 135.128 216.783 137.048C216.783 139.16 215.727 141.08 213.615 142.808C209.199 146.456 206.991 151.16 206.991 156.92V219.992C206.991 225.176 205.359 229.976 202.095 234.392L187.695 252.536C185.583 255.224 184.527 257.624 184.527 259.736C184.527 261.848 185.391 263.48 187.119 264.632C189.039 265.976 191.535 266.648 194.607 266.648H198.351C204.303 266.648 209.007 264.536 212.463 260.312L231.471 238.424C233.391 236.12 234.735 233.912 235.503 231.8C236.271 229.688 236.655 227.192 236.655 224.312V159.8C236.655 154.424 238.767 149.72 242.991 145.688L244.719 144.248C247.407 141.944 248.751 139.448 248.751 136.76C248.751 134.264 247.407 131.864 244.719 129.56L242.703 127.832ZM81.7181 34.52C74.0381 34.52 70.1981 38.36 70.1981 46.04V49.208C70.1981 56.888 74.0381 60.728 81.7181 60.728H102.742C110.422 60.728 114.262 64.568 114.262 72.248V229.784C114.262 237.464 118.102 241.304 125.782 241.304H128.95C136.63 241.304 140.47 237.464 140.47 229.784V72.248C140.47 64.568 144.31 60.728 151.99 60.728H172.726C180.406 60.728 184.246 56.888 184.246 49.208V46.04C184.246 38.36 180.406 34.52 172.726 34.52H81.7181Z"
    stroke="#5FF2D1" stroke-width="10" mask="url(#path-1-outside-1)" />
</svg>
